<?xml version="1.0" encoding="UTF-8"?><svg id="Layer_2" xmlns="http://www.w3.org/2000/svg" viewBox="0 0 735.87 225.62"><defs><style>.cls-1{fill:#231f20;}</style></defs><g id="Layer_3"><path class="cls-1" d="M0,126.33V.74H28.65V118.49c0,54.17,22.83,68.05,69.4,90.89-8.73,5.82-18.13,10.75-27.76,15.22C34.47,207.81,0,185.43,0,126.33Zm55.74-13.43V.74h85.07V25.82h-56.41v57.08h56.41v25.07h-56.41v64.25c-23.28-14.77-28.65-29.33-28.65-59.32Z"/><g id="Layer_6"><g id="Layer_5"><path class="cls-1" d="M266.38,141.68l-4.65,8.35h-13.6v26.37h13.72l-4.65,8.35h-9.07v38.65h-8.71v-81.72h26.96Z"/><path class="cls-1" d="M335.47,141.68l-4.65,8.35h-13.48v26.37h13.6l-4.65,8.35h-8.95v30.3h18.13l-4.65,8.35h-22.31v-81.72h26.96Z"/><path class="cls-1" d="M406.52,223.64h-8.83l-8.95-33.4c-.48,.32-1.19,.74-2.15,1.25-.95,.52-1.67,.94-2.15,1.25v30.9h-8.83v-82.08h15.99c2.94,0,5.49,1,7.64,2.98s3.22,4.37,3.22,7.16v22.43c0,5.25-2.07,9.23-6.2,11.93l10.26,37.58Zm-12.88-49.39v-20.16c-.08-2.78-1.63-4.18-4.65-4.18h-4.53v33.05c2.31-1.19,4.73-2.62,7.28-4.29,1.27-.87,1.91-2.34,1.91-4.41Z"/><path class="cls-1" d="M475.6,223.64h-8.83l-8.95-33.4c-.48,.32-1.19,.74-2.15,1.25-.95,.52-1.67,.94-2.15,1.25v30.9h-8.83v-82.08h15.99c2.94,0,5.49,1,7.64,2.98s3.22,4.37,3.22,7.16v22.43c0,5.25-2.07,9.23-6.2,11.93l10.26,37.58Zm-12.88-49.39v-20.16c-.08-2.78-1.63-4.18-4.65-4.18h-4.53v33.05c2.31-1.19,4.73-2.62,7.28-4.29,1.27-.87,1.91-2.34,1.91-4.41Z"/><path class="cls-1" d="M542.72,141.68l-4.65,8.35h-13.48v26.37h13.6l-4.65,8.35h-8.95v30.3h18.13l-4.65,8.35h-22.31v-81.72h26.96Z"/><path class="cls-1" d="M589.73,141.92v81.6h-8.83v-81.6h8.83Z"/><path class="cls-1" d="M664.85,223.64h-8.83l-8.95-33.4c-.48,.32-1.19,.74-2.15,1.25s-1.67,.94-2.15,1.25v30.9h-8.83v-82.08h15.99c2.94,0,5.49,1,7.63,2.98,2.15,1.99,3.22,4.37,3.22,7.16v22.43c0,5.25-2.07,9.23-6.2,11.93l10.26,37.58Zm-12.88-49.39v-20.16c-.08-2.78-1.63-4.18-4.65-4.18h-4.53v33.05c2.31-1.19,4.73-2.62,7.28-4.29,1.27-.87,1.91-2.34,1.91-4.41Z"/><path class="cls-1" d="M718.52,167.21l-7.74,56.43h-9.68l13.02-81.72h8.72c1.43,9.08,3.58,22.68,6.45,40.8,2.87,18.12,5.06,31.76,6.57,40.92h-9.68"/></g><g id="Layer_4"><path class="cls-1" d="M277.31,125.03h-37.8V.73h13.27V112.31h30.35l-5.82,12.72Z"/><path class="cls-1" d="M373.75,114.85h1.82c2.18-.12,3.94-.79,5.27-2,1.33-1.21,2-2.84,2-4.91V.36h13.45V110.31c-.24,4.36-1.94,8.06-5.09,11.09-3.15,3.03-6.85,4.54-11.09,4.54h-10.18c-4.48,0-8.39-1.51-11.72-4.54-3.33-3.03-5-6.72-5-11.09V.36h13.45V107.95c0,2.06,.7,3.73,2.09,5,1.39,1.27,3.06,1.91,5,1.91Z"/><path class="cls-1" d="M508.62,80.69v29.44c0,4.24-1.61,7.94-4.82,11.09-3.21,3.15-6.94,4.72-11.18,4.72h-8.36c-4.48,0-8.36-1.54-11.63-4.63-3.27-3.09-4.91-6.82-4.91-11.18V15.81c0-4.48,1.66-8.24,5-11.27,3.33-3.03,7.18-4.54,11.54-4.54h8.36c4.36,0,8.12,1.58,11.27,4.73,3.15,3.15,4.72,6.85,4.72,11.09v21.81c-1.58,.85-3.82,2.09-6.72,3.73-2.91,1.64-5.15,2.94-6.72,3.91V17.81c0-1.82-.7-3.3-2.09-4.45-1.39-1.15-3-1.73-4.82-1.73-1.94,0-3.61,.58-5,1.73-1.39,1.15-2.09,2.63-2.09,4.45V108.13c0,2.06,.66,3.7,2,4.91,1.33,1.21,3.03,1.82,5.09,1.82,1.82,0,3.42-.66,4.82-2,1.39-1.33,2.09-2.91,2.09-4.72v-19.63c7.75-4.6,12.24-7.21,13.45-7.81Z"/><path class="cls-1" d="M601.66,39.2l-11.78,85.83h-14.72L594.97,.73h13.27c2.18,13.81,5.45,34.5,9.81,62.06,4.36,27.56,7.69,48.31,10,62.24h-14.72"/><path class="cls-1" d="M722.3,29.26v-11.27c0-2.06-.73-3.73-2.18-5-1.45-1.27-3.15-1.91-5.09-1.91s-3.61,.7-5,2.09-2.09,3-2.09,4.82v16.54c0,4.85,1.69,9.27,5.09,13.27l14.36,16.36c5.33,5.94,8,14.42,8,25.44v20.54c0,4.61-1.63,8.39-4.91,11.36-3.27,2.97-7.15,4.45-11.63,4.45h-8.36c-4.36,0-8.09-1.57-11.18-4.72-3.09-3.15-4.63-6.78-4.63-10.9v-15.27l13.27-5.63v18.9c0,1.94,.73,3.52,2.18,4.72,1.45,1.21,3.09,1.82,4.91,1.82,2.06,0,3.75-.64,5.09-1.91,1.33-1.27,2-2.88,2-4.82v-20.9c0-5.57-1.94-10.78-5.82-15.63l-13.45-15.08c-3.76-3.88-6.06-7.54-6.91-11-.85-3.45-1.27-8.57-1.27-15.36v-13.81c0-4.48,1.66-8.33,5-11.54,3.33-3.21,7.18-4.82,11.54-4.82h8.18c4.24,0,7.97,1.7,11.18,5.09,3.21,3.39,4.81,7.15,4.81,11.27v7.27l-13.08,5.63Z"/></g></g></g></svg>